<mxfile host="app.diagrams.net" agent="Mozilla/5.0 (Windows NT 10.0; Win64; x64) AppleWebKit/537.36 (KHTML, like Gecko) Chrome/131.0.0.0 Safari/537.36" version="25.0.3">
  <diagram name="หน้า-1" id="Tanlux5tReD-OLwFhJJD">
    <mxGraphModel dx="1034" dy="446" grid="1" gridSize="10" guides="1" tooltips="1" connect="1" arrows="1" fold="1" page="1" pageScale="1" pageWidth="827" pageHeight="1169" math="0" shadow="0">
      <root>
        <mxCell id="0" />
        <mxCell id="1" parent="0" />
        <mxCell id="EiCurIR6LwAe0iAUc3D8-3" value="" style="edgeStyle=orthogonalEdgeStyle;rounded=0;orthogonalLoop=1;jettySize=auto;html=1;" edge="1" parent="1" source="EiCurIR6LwAe0iAUc3D8-1" target="EiCurIR6LwAe0iAUc3D8-2">
          <mxGeometry relative="1" as="geometry" />
        </mxCell>
        <mxCell id="EiCurIR6LwAe0iAUc3D8-1" value="start" style="strokeWidth=2;html=1;shape=mxgraph.flowchart.terminator;whiteSpace=wrap;" vertex="1" parent="1">
          <mxGeometry x="364" y="60" width="100" height="60" as="geometry" />
        </mxCell>
        <mxCell id="EiCurIR6LwAe0iAUc3D8-5" value="" style="edgeStyle=orthogonalEdgeStyle;rounded=0;orthogonalLoop=1;jettySize=auto;html=1;" edge="1" parent="1" source="EiCurIR6LwAe0iAUc3D8-2" target="EiCurIR6LwAe0iAUc3D8-4">
          <mxGeometry relative="1" as="geometry" />
        </mxCell>
        <mxCell id="EiCurIR6LwAe0iAUc3D8-2" value="int day ;&lt;div&gt;int sec ;&lt;/div&gt;" style="whiteSpace=wrap;html=1;strokeWidth=2;" vertex="1" parent="1">
          <mxGeometry x="354" y="200" width="120" height="60" as="geometry" />
        </mxCell>
        <mxCell id="EiCurIR6LwAe0iAUc3D8-7" value="" style="edgeStyle=orthogonalEdgeStyle;rounded=0;orthogonalLoop=1;jettySize=auto;html=1;" edge="1" parent="1" source="EiCurIR6LwAe0iAUc3D8-4" target="EiCurIR6LwAe0iAUc3D8-6">
          <mxGeometry relative="1" as="geometry" />
        </mxCell>
        <mxCell id="EiCurIR6LwAe0iAUc3D8-4" value="แสดงคำว่า Input Days" style="shape=parallelogram;perimeter=parallelogramPerimeter;whiteSpace=wrap;html=1;fixedSize=1;strokeWidth=2;" vertex="1" parent="1">
          <mxGeometry x="331" y="340" width="166" height="60" as="geometry" />
        </mxCell>
        <mxCell id="EiCurIR6LwAe0iAUc3D8-9" value="" style="edgeStyle=orthogonalEdgeStyle;rounded=0;orthogonalLoop=1;jettySize=auto;html=1;" edge="1" parent="1" source="EiCurIR6LwAe0iAUc3D8-6" target="EiCurIR6LwAe0iAUc3D8-8">
          <mxGeometry relative="1" as="geometry" />
        </mxCell>
        <mxCell id="EiCurIR6LwAe0iAUc3D8-6" value="รับค่า days" style="shape=parallelogram;perimeter=parallelogramPerimeter;whiteSpace=wrap;html=1;fixedSize=1;strokeWidth=2;" vertex="1" parent="1">
          <mxGeometry x="354" y="480" width="120" height="60" as="geometry" />
        </mxCell>
        <mxCell id="EiCurIR6LwAe0iAUc3D8-11" value="" style="edgeStyle=orthogonalEdgeStyle;rounded=0;orthogonalLoop=1;jettySize=auto;html=1;" edge="1" parent="1" source="EiCurIR6LwAe0iAUc3D8-8" target="EiCurIR6LwAe0iAUc3D8-10">
          <mxGeometry relative="1" as="geometry" />
        </mxCell>
        <mxCell id="EiCurIR6LwAe0iAUc3D8-8" value="คำนวณ sec = day * 24 *60 *60" style="whiteSpace=wrap;html=1;strokeWidth=2;" vertex="1" parent="1">
          <mxGeometry x="326" y="620" width="176" height="60" as="geometry" />
        </mxCell>
        <mxCell id="EiCurIR6LwAe0iAUc3D8-13" value="" style="edgeStyle=orthogonalEdgeStyle;rounded=0;orthogonalLoop=1;jettySize=auto;html=1;" edge="1" parent="1" source="EiCurIR6LwAe0iAUc3D8-10" target="EiCurIR6LwAe0iAUc3D8-12">
          <mxGeometry relative="1" as="geometry" />
        </mxCell>
        <mxCell id="EiCurIR6LwAe0iAUc3D8-10" value="แสดงค่า วินาที (sec)" style="shape=parallelogram;perimeter=parallelogramPerimeter;whiteSpace=wrap;html=1;fixedSize=1;strokeWidth=2;" vertex="1" parent="1">
          <mxGeometry x="341" y="760" width="146" height="60" as="geometry" />
        </mxCell>
        <mxCell id="EiCurIR6LwAe0iAUc3D8-12" value="end" style="strokeWidth=2;html=1;shape=mxgraph.flowchart.terminator;whiteSpace=wrap;" vertex="1" parent="1">
          <mxGeometry x="364" y="880" width="100" height="60" as="geometry" />
        </mxCell>
      </root>
    </mxGraphModel>
  </diagram>
</mxfile>
